<?xml version="1.0" encoding="utf-8"?>
<!-- Generator: Adobe Illustrator 25.0.0, SVG Export Plug-In . SVG Version: 6.00 Build 0)  -->
<svg version="1.1" id="Layer_1" xmlns="http://www.w3.org/2000/svg" xmlns:xlink="http://www.w3.org/1999/xlink" x="0px" y="0px"
	 viewBox="0 0 512 512" style="enable-background:new 0 0 512 512;" xml:space="preserve">
<style type="text/css">
	.st0{fill-rule:evenodd;clip-rule:evenodd;fill:#3578E5;}
	.st1{fill-rule:evenodd;clip-rule:evenodd;fill:#D53A42;}
</style>
<rect x="48.5" y="48.5" class="st0" width="148.2" height="88.9"/>
<path class="st0" d="M48.5,18.9c-16.4,0-29.6,13.3-29.6,29.6v88.9c0,16.4,13.3,29.6,29.6,29.6h148.2c16.4,0,29.6-13.3,29.6-29.6
	V48.5c0-16.4-13.3-29.6-29.6-29.6H48.5z"/>
<rect x="315.3" y="374.6" class="st0" width="148.2" height="88.9"/>
<path class="st0" d="M315.3,344.9c-16.4,0-29.6,13.3-29.6,29.6v88.9c0,16.4,13.3,29.6,29.6,29.6h148.2c16.4,0,29.6-13.3,29.6-29.6
	v-88.9c0-16.4-13.3-29.6-29.6-29.6H315.3z"/>
<path class="st1" d="M196.7,226.4H48.5c-16.4,0-29.6,13.3-29.6,29.6v207.5c0,16.4,13.3,29.6,29.6,29.6h148.2
	c16.4,0,29.6-13.3,29.6-29.6V256C226.3,239.6,213,226.4,196.7,226.4z M196.7,463.5H48.5V256h148.2V463.5z"/>
<rect x="315.3" y="48.5" class="st0" width="148.2" height="207.5"/>
<path class="st1" d="M315.3,18.9c-16.4,0-29.6,13.3-29.6,29.6V256c0,16.4,13.3,29.6,29.6,29.6h148.2c16.4,0,29.6-13.3,29.6-29.6
	V48.5c0-16.4-13.3-29.6-29.6-29.6H315.3z"/>
</svg>
