<?xml version="1.0" encoding="utf-8"?>
<!-- Generator: Adobe Illustrator 24.2.3, SVG Export Plug-In . SVG Version: 6.00 Build 0)  -->
<svg version="1.1" id="Layer_1" xmlns="http://www.w3.org/2000/svg" xmlns:xlink="http://www.w3.org/1999/xlink" x="0px" y="0px"
	 viewBox="0 0 512 512" style="enable-background:new 0 0 512 512;" xml:space="preserve">
<style type="text/css">
	.st0{fill-rule:evenodd;clip-rule:evenodd;fill:#3578E5;}
</style>
<path class="st0" d="M196.7,48.5H48.5v88.9h148.2V48.5z M48.5,18.9c-16.4,0-29.6,13.3-29.6,29.6v88.9c0,16.4,13.3,29.6,29.6,29.6
	h148.2c16.4,0,29.6-13.3,29.6-29.6V48.5c0-16.4-13.3-29.6-29.6-29.6H48.5z M463.5,374.6H315.3v88.9h148.2V374.6z M315.3,344.9
	c-16.4,0-29.6,13.3-29.6,29.6v88.9c0,16.4,13.3,29.6,29.6,29.6h148.2c16.4,0,29.6-13.3,29.6-29.6v-88.9c0-16.4-13.3-29.6-29.6-29.6
	H315.3z M196.7,256H48.5v207.5h148.2V256z M48.5,226.4c-16.4,0-29.6,13.3-29.6,29.6v207.5c0,16.4,13.3,29.6,29.6,29.6h148.2
	c16.4,0,29.6-13.3,29.6-29.6V256c0-16.4-13.3-29.6-29.6-29.6H48.5z M463.5,48.5H315.3V256h148.2V48.5z M315.3,18.9
	c-16.4,0-29.6,13.3-29.6,29.6V256c0,16.4,13.3,29.6,29.6,29.6h148.2c16.4,0,29.6-13.3,29.6-29.6V48.5c0-16.4-13.3-29.6-29.6-29.6
	H315.3z"/>
</svg>
