<svg version="1.1" preserveAspectRatio="xMidYMid meet" xmlns="http://www.w3.org/2000/svg" xmlns:xlink="http://www.w3.org/1999/xlink" viewBox="-272.059 0 1544.118 1000" style="cursor: pointer;">
  <defs>
    <path d="M479.897,219.269 A40.207,40.207 0 0 1 520.103,219.269 L640.724,288.91 A40.207,40.207 0 0 1 660.827,323.73 L660.827,463.01 A40.207,40.207 0 0 1 640.724,497.831 L520.103,567.471 A40.207,40.207 0 0 1 479.897,567.471 L359.276,497.831 A40.207,40.207 0 0 1 339.173,463.01 L339.173,323.73 A40.207,40.207 0 0 1 359.276,288.91 Z" stroke-linecap="round" stroke-linejoin="round" stroke-miterlimit="25" id="def-640f940c-0708-4d07-baf0-168bb201bd6a"></path>
    <g transform="matrix(2.32, 0, 0, 2.32, 450.115, 299.633)" fill="#fff" stroke="none" stroke-width="1" id="def-62c69e10-56be-4b6d-a11b-9fe79447f1e6">
      <g transform="translate(-28.5, -9.6)">
        <g></g>
        <g>
          <g>
            <polygon points="35.2,10.1 35.2,11.7 69.6,31.6 69.6,87.1 71,87.9 71,30.8   "></polygon>
          </g>
          <g>
            <path d=" M34.4,74.1 l26.9,15.5 l0.4 -0.2 v0 l5.8 -2.9 l0,0 l0.2 -0.1 V32.6 L34.4,13.3 V74.1 z M61.6,83.3 l3.7,2.2 l-3.6,1.8 L61.6,83.3 z M35.9,15.7 l30.5,17.6 v51.1 l-6.3 -3.6 l0.2,6.6 L35.9,73.3 V15.7 z"></path>
          </g>
        </g>
        <g>
          <path d=" M46.4,58.1 c0.8,0.5,1.4,0.1,1.4 -0.8 c0 -0.9 -0.6 -2 -1.4 -2.5 c-0.8 -0.5 -1.4 -0.1 -1.4,0.8 C45,56.5,45.6,57.6,46.4,58.1 z M50.9,60.7 c0.8,0.5,1.4,0.1,1.4 -0.8 c0 -0.9 -0.6 -2 -1.4 -2.5 c-0.8 -0.5 -1.4 -0.1 -1.4,0.8 C49.5,59.1,50.1,60.2,50.9,60.7 z M55.4,63.3 c0.8,0.5,1.4,0.1,1.4 -0.8 c0 -0.9 -0.6 -2 -1.4 -2.5 c-0.8 -0.5 -1.4 -0.1 -1.4,0.8 C54,61.7,54.6,62.8,55.4,63.3 z M61.9,62.6 c-0.4 -0.2 -0.6 -0.3 -0.8 -0.3 c-0.2,0 -0.3,0.1 -0.5,0.2 c-0.1,0.2 -0.2,0.4 -0.3,0.7 c0,0.2 -0.1,0.7 -0.1,1.4 c0,1.1,0,1.8 -0.1,2.2 c-0.1,0.4 -0.2,0.6 -0.5,0.8 c-0.2,0.1 -0.6,0.1 -1,0 c-0.3 -0.1 -0.8 -0.3 -1.4 -0.7 l-0.4 -0.2 v-2 c0.5,0.3,0.9,0.5,1,0.5 c0.2,0,0.3,0,0.4 -0.1 c0.1 -0.1,0.1 -0.3,0.1 -0.7 c0 -0.3,0 -1,0.1 -1.9 c0 -0.6,0.1 -1,0.2 -1.3 c0.1 -0.3,0.3 -0.5,0.4 -0.7 c0.2 -0.1,0.4 -0.2,0.7 -0.3 c-0.4 -0.5 -0.6 -0.9 -0.8 -1.3 c-0.2 -0.5 -0.4 -1.1 -0.5 -1.7 c-0.1 -0.4 -0.1 -1.3 -0.1 -2.7 c0 -0.4,0 -0.7 -0.1 -0.9 c-0.1 -0.2 -0.2 -0.3 -0.3 -0.5 c-0.2 -0.2 -0.5 -0.4 -1.1 -0.7 v-2 l0.4,0.2 c0.7,0.4,1.2,0.7,1.5,1.1 c0.4,0.3,0.6,0.7,0.9,1.1 c0.2,0.4,0.4,0.9,0.5,1.3 c0.1,0.5,0.1,1.1,0.1,2 c0,1,0,1.7,0.1,2.1 c0.1,0.5,0.3,0.9,0.5,1.3 c0.2,0.3,0.6,0.6,1,0.9 c0,0 -0.5 -0.3,0,0 V62.6 z M40.1,50.1 v-2 c0.4,0.2,0.6,0.3,0.8,0.3 c0.2,0,0.3 -0.1,0.5 -0.2 c0.1 -0.2,0.2 -0.4,0.3 -0.7 c0 -0.2,0.1 -0.7,0.1 -1.4 c0 -1.1,0 -1.8,0.1 -2.2 c0.1 -0.4,0.2 -0.6,0.5 -0.8 c0.2 -0.1,0.6 -0.1,1,0 c0.3,0.1,0.8,0.3,1.4,0.7 l0.4,0.2 v2 c-0.5 -0.3 -0.9 -0.5 -1 -0.5 c-0.2,0 -0.3,0 -0.3,0.1 c-0.1,0.1 -0.1,0.3 -0.1,0.7 c0,0.4,0,1 -0.1,2 c0,0.5 -0.1,1 -0.2,1.2 c-0.1,0.3 -0.2,0.5 -0.4,0.6 c-0.2,0.1 -0.4,0.2 -0.7,0.3 c0.3,0.4,0.5,0.7,0.7,1.1 c0.2,0.4,0.3,0.8,0.4,1.2 c0.1,0.4,0.2,1,0.2,1.6 c0,1,0.1,1.6,0.1,1.8 c0,0.4,0,0.7,0.1,0.8 c0.1,0.2,0.2,0.4,0.4,0.5 c0.2,0.2,0.5,0.4,1,0.7 v2 l-0.4 -0.2 c-0.7 -0.4 -1.2 -0.7 -1.5 -1.1 c-0.4 -0.3 -0.7 -0.7 -0.9 -1.1 c-0.2 -0.4 -0.4 -0.9 -0.5 -1.3 c-0.1 -0.5 -0.1 -1.1 -0.1 -2 c0 -1,0 -1.7 -0.1 -2.1 c-0.1 -0.5 -0.3 -0.9 -0.5 -1.3 C40.9,50.7,40.6,50.3,40.1,50.1 C40.1,50.1,40.6,50.3,40.1,50.1 z" style="fill-rule:evenodd;clip-rule:evenodd;"></path>
        </g>
      </g>
    </g>
    <g id="def-a3853992-2324-44fd-b76f-ebf94526a7c8">
      <use xlink:href="#def-640f940c-0708-4d07-baf0-168bb201bd6a" stroke-width="0"></use>
    </g>
    <path d="M127.921,692.211 C127.921,710.495,143.378,712.474,154.405,713.982 C160.625,714.83,165.431,715.867,165.431,719.542 C165.431,723.595,161.662,724.914,155.347,724.914 C150.069,724.914,146.394,723.218,144.697,719.919 C143.284,717.186,141.964,716.903,139.137,717.846 L130.278,721.05 C127.544,722.087,126.696,723.406,127.733,726.234 C131.314,736.035,141.116,740.842,155.159,740.842 C171.84,740.842,184.375,733.208,184.375,719.354 C184.375,701.541,170.238,698.902,159.305,697.394 C152.52,696.546,146.959,695.698,146.959,691.645 C146.959,688.347,149.504,686.745,155.913,686.745 C160.248,686.745,163.641,688.064,165.431,691.645 C166.939,694.379,167.976,694.756,170.521,693.625 L179.945,689.572 C182.773,688.441,183.527,687.027,182.207,684.294 C177.778,675.247,169.861,671.1,155.913,671.1 C137.911,671.1,127.921,679.77,127.921,692.211 Z M214.816,715.678 L214.816,676.472 C214.816,673.55,213.78,672.513,210.764,672.513 L200.114,672.513 C197.098,672.513,196.156,673.55,196.156,676.472 L196.156,714.83 C196.156,730.663,205.957,740.842,224.524,740.842 C243.185,740.842,252.986,730.663,252.986,714.83 L252.986,676.472 C252.986,673.55,251.95,672.513,248.934,672.513 L238.284,672.513 C235.268,672.513,234.325,673.55,234.325,676.472 L234.325,715.678 C234.325,721.239,231.027,724.349,224.524,724.349 C218.021,724.349,214.816,721.239,214.816,715.678 Z M297.565,672.513 L271.553,672.513 C268.537,672.513,267.5,673.55,267.5,676.472 L267.5,735.47 C267.5,738.392,268.537,739.428,271.553,739.428 L282.203,739.428 C285.218,739.428,286.161,738.392,286.161,735.47 L286.161,719.354 L297.753,719.354 C312.361,719.354,321.88,710.966,321.88,696.075 C321.88,681.09,312.267,672.513,297.565,672.513 Z M295.491,702.861 L286.161,702.861 L286.161,689.007 L295.491,689.007 C299.921,689.007,302.56,691.834,302.56,695.981 C302.56,700.128,299.921,702.861,295.491,702.861 Z M377.674,672.513 L338.185,672.513 C335.169,672.513,334.132,673.55,334.132,676.472 L334.132,735.47 C334.132,738.392,335.169,739.428,338.185,739.428 L378.522,739.428 C381.444,739.428,382.481,738.392,382.481,735.47 L382.481,726.894 C382.481,723.878,381.444,722.935,378.522,722.935 L352.793,722.935 L352.793,713.888 L372.679,713.888 C375.695,713.888,376.732,712.851,376.732,709.835 L376.732,701.353 C376.732,698.431,375.695,697.394,372.679,697.394 L352.793,697.394 L352.793,689.007 L377.674,689.007 C380.69,689.007,381.727,687.97,381.727,684.954 L381.727,676.472 C381.727,673.55,380.69,672.513,377.674,672.513 Z M426.117,672.513 L399.257,672.513 C396.241,672.513,395.204,673.55,395.204,676.472 L395.204,735.47 C395.204,738.392,396.241,739.428,399.257,739.428 L409.906,739.428 C412.922,739.428,413.865,738.392,413.865,735.47 L413.865,717.186 L416.032,717.186 C419.896,717.186,421.499,718.788,423.101,721.993 L429.133,734.904 C430.641,738.203,432.808,739.428,437.803,739.428 L447.982,739.428 C451.092,739.428,451.752,737.355,450.432,734.81 L441.95,718.694 C441.196,717.186,440.348,715.867,439.405,714.642 C445.814,711.06,449.584,704.463,449.584,695.227 C449.584,680.619,440.348,672.513,426.117,672.513 Z M430.264,695.133 C430.264,698.997,428.002,701.447,424.043,701.447 L413.865,701.447 L413.865,689.007 L424.043,689.007 C428.096,689.007,430.264,691.363,430.264,695.133 Z M538.176,700.976 L514.331,700.976 C511.41,700.976,510.373,702.013,510.373,705.028 L510.373,712.097 C510.373,715.113,511.41,716.055,514.331,716.055 L523.379,716.055 L523.379,717.94 C523.379,721.993,519.515,724.349,513.2,724.349 C505.755,724.349,502.833,721.145,502.833,714.547 L502.833,697.394 C502.833,690.797,505.755,687.593,513.2,687.593 C518.478,687.593,521.305,689.478,523.002,693.719 C524.039,696.64,525.17,697.206,528.091,696.263 L538.176,692.682 C541.003,691.74,541.663,690.326,540.72,687.593 C536.762,677.037,527.714,671.1,513.2,671.1 C494.634,671.1,484.172,681.184,484.172,697.489 L484.172,714.453 C484.172,730.758,494.634,740.842,513.2,740.842 C531.767,740.842,542.134,730.758,542.134,717.469 L542.134,705.028 C542.134,702.013,541.191,700.976,538.176,700.976 Z M586.147,672.513 L559.287,672.513 C556.271,672.513,555.234,673.55,555.234,676.472 L555.234,735.47 C555.234,738.392,556.271,739.428,559.287,739.428 L569.937,739.428 C572.952,739.428,573.895,738.392,573.895,735.47 L573.895,717.186 L576.063,717.186 C579.927,717.186,581.529,718.788,583.131,721.993 L589.163,734.904 C590.671,738.203,592.838,739.428,597.833,739.428 L608.012,739.428 C611.122,739.428,611.782,737.355,610.462,734.81 L601.98,718.694 C601.226,717.186,600.378,715.867,599.436,714.642 C605.844,711.06,609.614,704.463,609.614,695.227 C609.614,680.619,600.378,672.513,586.147,672.513 Z M590.294,695.133 C590.294,698.997,588.032,701.447,584.073,701.447 L573.895,701.447 L573.895,689.007 L584.073,689.007 C588.126,689.007,590.294,691.363,590.294,695.133 Z M623.186,676.283 L623.186,735.658 C623.186,738.486,624.128,739.428,626.956,739.428 L638.077,739.428 C640.904,739.428,641.846,738.486,641.846,735.658 L641.846,676.283 C641.846,673.456,640.904,672.513,638.077,672.513 L626.956,672.513 C624.128,672.513,623.186,673.456,623.186,676.283 Z M684.069,672.513 L661.073,672.513 C658.057,672.513,657.02,673.55,657.02,676.472 L657.02,735.47 C657.02,738.392,658.057,739.428,661.073,739.428 L684.069,739.428 C702.635,739.428,713.002,729.25,713.002,713.039 L713.002,698.902 C713.002,682.598,702.635,672.513,684.069,672.513 Z M694.342,699.185 L694.342,712.757 C694.342,719.448,691.043,722.935,683.409,722.935 L675.681,722.935 L675.681,689.007 L683.409,689.007 C691.043,689.007,694.342,692.494,694.342,699.185 Z M783.499,714.265 L783.499,715.584 C783.499,721.71,780.671,724.349,774.451,724.349 C769.362,724.349,766.629,722.935,765.121,719.919 C763.613,717.186,762.764,716.244,759.937,717.28 L750.984,720.768 C748.156,721.804,747.402,723.029,748.439,725.857 C752.397,736.035,760.785,740.842,774.734,740.842 C792.546,740.842,802.065,731.7,802.065,715.49 L802.065,696.452 C802.065,680.242,792.641,671.1,774.734,671.1 C757.675,671.1,747.402,678.922,747.402,693.248 C747.402,707.95,755.602,715.019,773.697,715.019 C778.032,715.019,781.143,714.736,783.499,714.265 Z M783.499,694.379 L783.499,697.96 C781.896,698.525,779.069,699.091,774.734,699.091 C768.137,699.091,765.969,697.112,765.969,693.153 C765.969,689.289,768.137,687.027,774.734,687.027 C781.143,687.027,783.499,689.761,783.499,694.379 Z M872.09,734.81 L859.65,711.249 C858.048,708.044,856.257,705.688,853.901,703.992 L871.054,676.66 C872.561,674.21,871.619,672.513,868.792,672.513 L857.953,672.513 C853.052,672.513,852.204,673.079,850.414,676.001 L836.842,697.394 L834.769,697.394 L834.769,676.472 C834.769,673.55,833.826,672.513,830.81,672.513 L820.161,672.513 C817.145,672.513,816.108,673.55,816.108,676.472 L816.108,735.47 C816.108,738.392,817.145,739.428,820.161,739.428 L830.81,739.428 C833.826,739.428,834.769,738.392,834.769,735.47 L834.769,713.888 L836.465,713.888 C840.046,713.888,841.366,715.584,842.874,718.6 L851.073,735.47 C852.675,738.769,854.466,739.428,859.461,739.428 L869.64,739.428 C872.75,739.428,873.41,737.355,872.09,734.81 Z" id="def-e9e6201d-de5c-423f-980c-08808d5362db"></path>
    <path d="M304.575,765.572 C300.579,765.572,299.071,768.588,299.071,772.245 L299.071,785.666 C299.071,789.322,300.579,792.338,304.575,792.338 C308.608,792.338,310.116,789.322,310.116,785.666 L310.116,782.801 L309.287,782.801 L309.287,785.703 C309.287,788.908,308.081,791.547,304.612,791.547 C301.106,791.547,299.9,788.908,299.9,785.703 L299.9,772.207 C299.9,769.003,301.106,766.326,304.612,766.326 C308.081,766.326,309.287,769.003,309.287,772.207 L309.287,774.281 L310.116,774.281 L310.116,772.245 C310.116,768.588,308.608,765.572,304.575,765.572 Z M320.785,765.572 C316.978,765.61,315.357,768.249,315.357,772.094 C315.357,779.37,325.46,779.144,325.46,785.816 C325.46,789.021,324.216,791.547,320.747,791.547 C317.279,791.547,316.035,789.021,316.035,785.816 L316.035,784.497 L315.243,784.497 L315.243,785.779 C315.243,789.436,316.751,792.338,320.747,792.338 C324.781,792.338,326.289,789.436,326.289,785.779 C326.289,778.616,316.186,778.805,316.186,772.057 C316.186,768.928,317.355,766.326,320.823,766.326 C324.253,766.326,325.422,768.965,325.422,772.094 L325.422,772.622 L326.251,772.622 L326.251,772.132 C326.251,768.513,324.781,765.572,320.785,765.572 Z M336.958,765.572 C333.15,765.61,331.529,768.249,331.529,772.094 C331.529,779.37,341.632,779.144,341.632,785.816 C341.632,789.021,340.388,791.547,336.92,791.547 C333.452,791.547,332.208,789.021,332.208,785.816 L332.208,784.497 L331.416,784.497 L331.416,785.779 C331.416,789.436,332.924,792.338,336.92,792.338 C340.954,792.338,342.462,789.436,342.462,785.779 C342.462,778.616,332.359,778.805,332.359,772.057 C332.359,768.928,333.527,766.326,336.995,766.326 C340.426,766.326,341.595,768.965,341.595,772.094 L341.595,772.622 L342.424,772.622 L342.424,772.132 C342.424,768.513,340.954,765.572,336.958,765.572 Z M361.236,765.572 C357.24,765.572,355.732,768.588,355.732,772.245 L355.732,785.666 C355.732,789.322,357.24,792.338,361.236,792.338 C365.269,792.338,366.777,789.322,366.777,785.666 L366.777,778.955 L361.839,778.955 L361.839,779.709 L365.948,779.709 L365.948,785.703 C365.948,788.908,364.742,791.547,361.273,791.547 C357.767,791.547,356.561,788.908,356.561,785.703 L356.561,772.207 C356.561,769.003,357.767,766.326,361.273,766.326 C364.742,766.326,365.948,769.003,365.948,772.207 L365.948,773.979 L366.777,773.979 L366.777,772.245 C366.777,768.588,365.269,765.572,361.236,765.572 Z M372.017,765.761 L372.017,792.15 L372.847,792.15 L372.847,779.973 L376.089,779.973 C379.519,779.973,381.857,780.991,381.857,784.874 L381.857,789.021 C381.857,790.152,381.97,791.32,382.498,792.15 L383.402,792.15 C382.799,791.32,382.686,790.039,382.686,789.021 L382.686,784.874 C382.686,781.971,381.442,780.049,378.502,779.596 C381.404,779.068,382.686,777.297,382.686,774.055 L382.686,771.68 C382.686,768.06,381.178,765.761,377.257,765.761 Z M372.847,779.182 L372.847,766.553 L377.22,766.553 C380.613,766.553,381.857,768.551,381.857,771.755 L381.857,774.168 C381.857,778.239,379.746,779.182,376.089,779.182 Z M388.605,765.761 L388.605,792.15 L389.434,792.15 L389.434,765.761 Z M394.712,765.761 L394.712,792.15 L400.254,792.15 C404.25,792.15,405.946,789.322,405.946,785.59 L405.946,772.358 C405.946,768.588,404.25,765.761,400.216,765.761 Z M395.541,791.358 L395.541,766.553 L400.216,766.553 C403.722,766.553,405.117,769.003,405.117,772.32 L405.117,785.628 C405.117,788.908,403.76,791.358,400.216,791.358 Z M425.172,792.15 L425.172,766.553 L430.94,766.553 L430.94,765.761 L418.575,765.761 L418.575,766.553 L424.343,766.553 L424.343,792.15 Z M436.444,778.39 L436.444,766.553 L445.68,766.553 L445.68,765.761 L435.615,765.761 L435.615,792.15 L445.68,792.15 L445.68,791.358 L436.444,791.358 L436.444,779.144 L444.21,779.144 L444.21,778.39 Z M465.585,767.005 L465.585,792.15 L466.414,792.15 L466.414,765.761 L465.133,765.761 L458.649,790.793 L452.164,765.761 L450.883,765.761 L450.883,792.15 L451.637,792.15 L451.637,767.005 L458.159,792.074 L459.101,792.074 Z M471.692,765.761 L471.692,792.15 L472.522,792.15 L472.522,780.953 L476.292,780.953 C480.476,780.953,482.361,778.955,482.361,774.771 L482.361,772.132 C482.361,768.437,480.966,765.761,476.895,765.761 Z M472.522,780.162 L472.522,766.553 L476.895,766.553 C480.438,766.553,481.532,768.852,481.532,772.094 L481.532,774.809 C481.532,778.541,479.986,780.162,476.292,780.162 Z M497.176,792.15 L497.176,791.358 L488.317,791.358 L488.317,765.761 L487.488,765.761 L487.488,792.15 Z M513.877,785.93 L515.423,792.15 L516.252,792.15 L509.73,765.723 L508.561,765.723 L502.19,792.15 L502.944,792.15 L504.49,785.93 Z M509.127,766.703 L513.726,785.176 L504.641,785.176 Z M525.752,792.15 L525.752,766.553 L531.52,766.553 L531.52,765.761 L519.192,765.761 L519.192,766.553 L524.923,766.553 L524.923,792.15 Z M536.911,778.39 L536.911,766.553 L546.147,766.553 L546.147,765.761 L536.081,765.761 L536.081,792.15 L546.147,792.15 L546.147,791.358 L536.911,791.358 L536.911,779.144 L544.677,779.144 L544.677,778.39 Z M564.921,765.572 C560.925,765.572,559.417,768.588,559.417,772.245 L559.417,785.666 C559.417,789.322,560.925,792.338,564.921,792.338 C568.954,792.338,570.462,789.322,570.462,785.666 L570.462,778.955 L565.524,778.955 L565.524,779.709 L569.633,779.709 L569.633,785.703 C569.633,788.908,568.427,791.547,564.958,791.547 C561.452,791.547,560.246,788.908,560.246,785.703 L560.246,772.207 C560.246,769.003,561.452,766.326,564.958,766.326 C568.427,766.326,569.633,769.003,569.633,772.207 L569.633,773.979 L570.462,773.979 L570.462,772.245 C570.462,768.588,568.954,765.572,564.921,765.572 Z M576.532,778.39 L576.532,766.553 L585.768,766.553 L585.768,765.761 L575.703,765.761 L575.703,792.15 L585.768,792.15 L585.768,791.358 L576.532,791.358 L576.532,779.144 L584.298,779.144 L584.298,778.39 Z M591.762,766.967 L601.187,792.15 L602.205,792.15 L602.205,765.761 L601.413,765.761 L601.413,790.453 L592.139,765.761 L590.97,765.761 L590.97,792.15 L591.762,792.15 Z M608.312,778.39 L608.312,766.553 L617.548,766.553 L617.548,765.761 L607.482,765.761 L607.482,792.15 L617.548,792.15 L617.548,791.358 L608.312,791.358 L608.312,779.144 L616.078,779.144 L616.078,778.39 Z M622.75,765.761 L622.75,792.15 L623.58,792.15 L623.58,779.973 L626.822,779.973 C630.252,779.973,632.59,780.991,632.59,784.874 L632.59,789.021 C632.59,790.152,632.703,791.32,633.23,792.15 L634.135,792.15 C633.532,791.32,633.419,790.039,633.419,789.021 L633.419,784.874 C633.419,781.971,632.175,780.049,629.234,779.596 C632.137,779.068,633.419,777.297,633.419,774.055 L633.419,771.68 C633.419,768.06,631.911,765.761,627.99,765.761 Z M623.58,779.182 L623.58,766.553 L627.953,766.553 C631.346,766.553,632.59,768.551,632.59,771.755 L632.59,774.168 C632.59,778.239,630.478,779.182,626.822,779.182 Z M650.911,785.93 L652.457,792.15 L653.286,792.15 L646.764,765.723 L645.596,765.723 L639.225,792.15 L639.979,792.15 L641.524,785.93 Z M646.161,766.703 L650.76,785.176 L641.675,785.176 Z M662.786,792.15 L662.786,766.553 L668.554,766.553 L668.554,765.761 L656.227,765.761 L656.227,766.553 L661.957,766.553 L661.957,792.15 Z M673.078,785.666 C673.078,789.36,674.661,792.338,678.657,792.338 C682.729,792.338,684.312,789.36,684.312,785.666 L684.312,772.245 C684.312,768.551,682.729,765.572,678.657,765.572 C674.661,765.572,673.078,768.551,673.078,772.245 Z M673.907,772.207 C673.907,768.965,675.151,766.326,678.657,766.326 C682.201,766.326,683.483,768.965,683.483,772.207 L683.483,785.703 C683.483,788.945,682.201,791.584,678.657,791.584 C675.151,791.584,673.907,788.945,673.907,785.703 Z M689.552,765.761 L689.552,792.15 L690.381,792.15 L690.381,779.973 L693.623,779.973 C697.054,779.973,699.391,780.991,699.391,784.874 L699.391,789.021 C699.391,790.152,699.504,791.32,700.032,792.15 L700.937,792.15 C700.334,791.32,700.221,790.039,700.221,789.021 L700.221,784.874 C700.221,781.971,698.977,780.049,696.036,779.596 C698.939,779.068,700.221,777.297,700.221,774.055 L700.221,771.68 C700.221,768.06,698.713,765.761,694.792,765.761 Z M690.381,779.182 L690.381,766.553 L694.754,766.553 C698.147,766.553,699.391,768.551,699.391,771.755 L699.391,774.168 C699.391,778.239,697.28,779.182,693.623,779.182 Z" id="def-2c5952e5-d6cd-4948-a67b-79d7b378b96a"></path>
    <mask id="mask-43bb9881-8086-4bd7-8cc6-0cce236f01f5" x="254.866" y="148.236" width="490.268" height="490.268" maskUnits="userSpaceOnUse" stroke-width="0">
      <rect x="277.151" y="170.521" width="445.698" height="445.698" fill="#000"></rect>
      <use xlink:href="#def-a3853992-2324-44fd-b76f-ebf94526a7c8" fill="#fff" stroke="#fff"></use>
    </mask>
    <mask id="mask-9996a1bb-bf2e-449e-96a2-729dd9be74b5" x="116.108" y="659.941" width="767.785" height="92.06" maskUnits="userSpaceOnUse" stroke-width="0">
      <rect x="120.292" y="664.126" width="759.415" height="83.691" fill="#000"></rect>
      <use xlink:href="#def-e9e6201d-de5c-423f-980c-08808d5362db" fill="#fff" stroke="#fff"></use>
    </mask>
    <mask id="mask-e7480624-8362-4a26-8e68-d34d2242ca2a" x="294.78" y="761.29" width="410.439" height="35.331" maskUnits="userSpaceOnUse" stroke-width="0">
      <rect x="296.386" y="762.896" width="407.227" height="32.119" fill="#000"></rect>
      <use xlink:href="#def-2c5952e5-d6cd-4948-a67b-79d7b378b96a" fill="#fff" stroke="#fff"></use>
    </mask>
    <mask id="mask-c9f89c7d-5d50-4453-95d1-f9a2307dda56" x="445.127" y="294.645" width="109.747" height="197.451" maskUnits="userSpaceOnUse" stroke-width="0">
      <rect x="450.115" y="299.633" width="99.77" height="187.474" fill="#000"></rect>
      <use xlink:href="#def-62c69e10-56be-4b6d-a11b-9fe79447f1e6" fill="#fff" stroke="#fff"></use>
    </mask>
  </defs>
  <rect id="background-5ba50af7-df9b-48cb-9994-582fc70bb617" x="-272.059" y="0" width="1544.118" height="1000" fill="#000000"></rect>
  <g mask="url(#mask-43bb9881-8086-4bd7-8cc6-0cce236f01f5)">
    <rect x="277.151" y="170.521" width="445.698" height="445.698" fill="#f9f9f9"></rect>
  </g>
  <g mask="url(#mask-9996a1bb-bf2e-449e-96a2-729dd9be74b5)">
    <rect x="120.292" y="664.126" width="759.415" height="83.691" fill="#f9f9f9"></rect>
  </g>
  <g mask="url(#mask-e7480624-8362-4a26-8e68-d34d2242ca2a)">
    <rect x="296.386" y="762.896" width="407.227" height="32.119" fill="#f9f9f9"></rect>
  </g>
  <g mask="url(#mask-c9f89c7d-5d50-4453-95d1-f9a2307dda56)">
    <rect x="450.115" y="299.633" width="99.77" height="187.474" fill="#000000"></rect>
  </g>
  <g opacity="0">
    <rect fill="none" stroke="#fff" stroke-dasharray="11.029" stroke-dashoffset="0" stroke-width="1.838" x="-262.059" y="10" width="1524.118" height="980"></rect>
    <rect fill="none" stroke="#000" stroke-dasharray="11.029" stroke-dashoffset="11.029" stroke-width="1.838" x="-262.059" y="10" width="1524.118" height="980"></rect>
  </g>
  <g opacity="1">
    <rect fill="none" stroke="#fff" stroke-dasharray="5.515" stroke-dashoffset="0" stroke-width="1.838" x="-262.059" y="10" width="1524.118" height="980"></rect>
    <rect fill="none" stroke="#000" stroke-dasharray="5.515" stroke-dashoffset="5.515" stroke-width="1.838" x="-262.059" y="10" width="1524.118" height="980"></rect>
  </g>
</svg>